<svg version="1.1" xmlns="http://www.w3.org/2000/svg" viewBox="0 0 250 250"><desc>Created with Snap</desc><defs><linearGradient x1="-285.69599838256835" y1="-1407.3600952148438" x2="4456.97006043696" y2="-1407.3600952148438" gradientUnits="userSpaceOnUse" id="linearGradientSktsihtps2za"><stop offset="0%" stop-color="#500202"></stop><stop offset="100%" stop-color="#840707"></stop></linearGradient></defs><g transform="matrix(0.0527,0,0,0.0527,15.0599,140.3028)"><rect x="-285.69599838256835" y="-1407.3600952148438" width="4742.666058819528" height="2234.112158203125" fill="url('#linearGradientSktsihtps2za')"></rect><g transform="matrix(18.0168,0,0,18.0168,2438.1722,-1190.2442)"><g><path d="M78.4,66.5c-5.5,4.8-9.9,15.2-9.9,15.2s-6.9-11.4-12.9-15.3c-9.5-6.1-13.6-6.2-13.6-6.2V65c0,0,7.8,1.2,11.7,4.6   c8.2,7.1,14.8,18.5,14.8,18.5S74.4,75,80.1,70.5C88.1,64.3,95,65,95,65v-4.8C95,60.1,85.1,60.7,78.4,66.5z" fill="#ffffff" style=""></path><path d="M42,80c-6.4-3.6-17.8-4.3-17.8-4.3s8.7-10.1,10.5-17C37.5,47.9,36.2,44,36.2,44l-4.6,1.6c0,0,1.3,7.7-0.6,12.4   c-4.1,9.9-13,19.8-13,19.8s14.6,1.3,20.7,5.1c8.6,5.4,10.2,12,10.2,12l4.6-1.6C53.5,93.4,49.7,84.4,42,80z" fill="#ffffff" style=""></path><path d="M35.3,36.8c11.3-0.9,14.6-3.4,14.6-3.4l-3-3.8c0,0-6.9,3.7-12.1,3.4c-10.9-0.6-23.3-5.6-23.3-5.6s3.5,14,1.8,20.9   C10.9,58.2,5,61.8,5,61.8l3,3.8c0,0,7.5-6.5,9.1-15.1c1.3-7.1-1.7-18-1.7-18S28,37.4,35.3,36.8z" fill="#ffffff" style=""></path><path d="M37.4,17.8c7.3-1.1,16.7-7.4,16.7-7.4s-0.6,13.2,2.4,19.8c4.6,10.2,8,12.5,8,12.5l2.7-4c0,0-5.9-5.2-7.3-10.2   C56.9,18.2,57.7,5,57.7,5s-12.3,7.8-19.5,8.5c-10.2,1-15.6-3.3-15.6-3.3l-2.7,4.1C19.9,14.2,28.6,19.1,37.4,17.8z" fill="#ffffff" style=""></path><path d="M65,60.5c0,0,3.1-7.2,7.4-10.1c9-6.1,21.9-9.7,21.9-9.7s-11.5-8.9-14.5-15.4c-4.2-9.1-1.9-15.6-1.9-15.6l-4.8-1.2   c0,0-1.9,9.6,2.2,17.4c3.4,6.4,12.5,13.2,12.5,13.2S75,42.9,69.6,47.8c-8.3,7.6-9.4,11.5-9.4,11.5L65,60.5z" fill="#ffffff" style=""></path></g><desc>Created with Snap</desc><defs></defs></g><g><g transform="matrix(1.024,0,0,-1.024,0,0)"><path d="M78 359L84 295Q84 285 73 279Q63 273 56 273Q42 273 31 295Q21 318 21 337Q21 411 72 462Q124 514 203 540Q203 574 217 604Q232 635 263 635Q276 635 276 598L276 556Q308 560 323 560Q456 560 533 485Q611 411 611 298Q611 220 583 160Q555 100 507 65Q411 -5 277 -5L256 -5Q253 -34 248 -34Q201 -34 185 -21Q178 -14 177 3Q88 28 88 58Q88 68 95 73Q102 79 110 79Q119 79 177 55Q186 317 200 505Q145 486 111 448Q78 410 78 359ZM296 521Q282 521 275 520Q271 345 265 226Q260 71 258 31Q278 28 300 28Q395 28 465 98Q535 169 535 272Q535 375 468 448Q401 521 296 521ZM967 217Q1007 230 1022 239Q1038 249 1046 254L1058 261Q1063 264 1066 264Q1074 264 1074 255Q1074 246 1043 223Q1012 201 966 183Q959 99 913 47Q867 -5 782 -5Q720 -5 687 44Q654 94 654 160Q654 227 693 286Q733 345 795 345Q823 365 861 365Q900 365 933 324Q966 283 967 217ZM902 166L866 164Q820 164 788 191Q756 219 756 252Q756 285 767 309Q724 275 724 175Q724 127 744 83Q764 40 807 40Q850 40 874 76Q898 113 902 166ZM840 332Q824 332 815 317Q806 303 806 286Q806 249 831 226Q857 203 891 203L903 203Q901 252 886 292Q872 332 840 332ZM1340 -35L1367 -32Q1375 -32 1375 -40Q1375 -54 1356 -61Q1337 -68 1313 -68Q1268 -68 1237 -32Q1207 4 1153 101Q1140 122 1140 133Q1140 148 1182 168Q1250 203 1250 256Q1250 271 1239 281Q1229 292 1212 292Q1188 292 1155 235Q1122 179 1110 129Q1099 80 1099 23Q1099 -5 1083 -5Q1060 -5 1039 1Q1018 8 1018 18Q1018 29 1026 113Q1034 198 1035 235Q1039 439 1059 547Q1062 556 1086 578Q1111 600 1126 600Q1141 600 1140 562Q1140 525 1124 402Q1108 279 1104 177Q1122 241 1161 298Q1201 355 1241 355Q1309 355 1309 289Q1309 245 1283 209Q1257 174 1213 152Q1204 148 1204 143Q1204 138 1207 133Q1270 22 1314 -23Q1326 -35 1340 -35ZM1642 -5Q1603 -5 1583 11Q1576 18 1576 46Q1576 75 1578 123Q1552 58 1526 26Q1501 -5 1461 -5Q1421 -5 1391 32Q1361 70 1361 150Q1361 231 1406 293Q1452 355 1526 355Q1558 355 1598 313Q1606 324 1626 339Q1647 355 1661 355Q1676 355 1676 317Q1676 307 1670 278Q1665 249 1658 236Q1649 213 1649 73Q1649 46 1655 46Q1672 47 1702 88Q1732 130 1761 195Q1791 260 1797 260Q1804 260 1804 252Q1804 224 1775 163Q1696 -5 1642 -5ZM1520 315Q1492 315 1460 273Q1429 232 1429 176Q1429 120 1445 84Q1462 48 1489 48Q1522 48 1586 213Q1587 221 1588 240Q1590 260 1591 270Q1582 286 1559 300Q1537 315 1520 315ZM1822 54L1823 23Q1823 -5 1807 -5Q1783 -5 1761 1Q1739 8 1739 19Q1739 31 1744 98Q1750 166 1750 200L1750 259Q1750 307 1760 317Q1770 327 1795 346Q1821 365 1832 365Q1844 365 1847 361Q1850 357 1850 346Q1850 293 1830 246Q1825 189 1825 167Q1829 173 1867 235Q1905 297 1931 326Q1958 355 1979 355Q2000 355 2016 341Q2033 327 2033 306Q2033 262 2023 176Q2014 91 2014 68Q2014 46 2020 46Q2037 47 2067 88Q2097 130 2126 195Q2156 260 2162 260Q2169 260 2169 252Q2169 224 2140 163Q2061 -5 2007 -5Q1968 -5 1948 11Q1941 18 1941 47Q1941 77 1946 143Q1952 210 1952 243Q1952 276 1940 276Q1929 276 1880 207Q1831 139 1828 120Q1822 85 1822 54Z" fill="#ffffff" style=""></path></g></g></g></svg>